<svg xmlns="http://www.w3.org/2000/svg" viewBox="0 0 800 400" width="800" height="400" shape-rendering="geometricPrecision">
  <defs>
    <linearGradient id="water" x1="0%" y1="0%" x2="0%" y2="100%">
      <stop offset="0%" stop-color="#bdeef6"/>
      <stop offset="22%" stop-color="#72d5f8"/>
      <stop offset="60%" stop-color="#1ea8ea"/>
      <stop offset="100%" stop-color="#0b88d8"/>
    </linearGradient>
    <radialGradient id="glow" cx="50%" cy="22%" r="60%">
      <stop offset="0%" stop-color="#ffffff" stop-opacity=".42"/>
      <stop offset="45%" stop-color="#bff6ff" stop-opacity=".18"/>
      <stop offset="100%" stop-color="#bff6ff" stop-opacity="0"/>
    </radialGradient>
    <linearGradient id="sand" x1="0%" y1="0%" x2="0%" y2="100%">
      <stop offset="0%" stop-color="#f4e6bc"/>
      <stop offset="100%" stop-color="#d9c089"/>
    </linearGradient>
    <linearGradient id="sandShade" x1="0%" y1="0%" x2="0%" y2="100%">
      <stop offset="0%" stop-color="#e9d49e" stop-opacity=".85"/>
      <stop offset="100%" stop-color="#c9af79" stop-opacity=".95"/>
    </linearGradient>
    <linearGradient id="seaweed" x1="0%" y1="0%" x2="0%" y2="100%">
      <stop offset="0%" stop-color="#8be65d"/>
      <stop offset="100%" stop-color="#2f8a2f"/>
    </linearGradient>
    <linearGradient id="coralPink" x1="0%" y1="0%" x2="0%" y2="100%">
      <stop offset="0%" stop-color="#ffb0bd"/>
      <stop offset="100%" stop-color="#ef8097"/>
    </linearGradient>
    <linearGradient id="coralSand" x1="0%" y1="0%" x2="0%" y2="100%">
      <stop offset="0%" stop-color="#f2e0c2"/>
      <stop offset="100%" stop-color="#d4b588"/>
    </linearGradient>
    <linearGradient id="rock" x1="0%" y1="0%" x2="0%" y2="100%">
      <stop offset="0%" stop-color="#d4d8df"/>
      <stop offset="100%" stop-color="#8f98a8"/>
    </linearGradient>
    <filter id="soft" x="-20%" y="-20%" width="140%" height="140%">
      <feGaussianBlur stdDeviation="2.4"/>
    </filter>
  </defs>

  <rect width="800" height="400" fill="url(#water)"/>
  <ellipse cx="392" cy="76" rx="300" ry="150" fill="url(#glow)"/>

  <g opacity=".18">
    <path d="M120 0L175 0L240 400L175 400Z" fill="#ffffff"/>
    <path d="M290 0L330 0L395 400L350 400Z" fill="#ffffff"/>
    <path d="M485 0L535 0L620 400L565 400Z" fill="#ffffff"/>
  </g>

  <g fill="none" stroke="#ecfbff" stroke-width="2" opacity=".65">
    <circle cx="235" cy="236" r="4"/>
    <circle cx="248" cy="248" r="5"/>
    <circle cx="262" cy="262" r="4"/>
    <circle cx="272" cy="278" r="5"/>
    <circle cx="286" cy="297" r="4"/>

    <circle cx="720" cy="228" r="3"/>
    <circle cx="734" cy="244" r="4"/>
    <circle cx="748" cy="260" r="5"/>
    <circle cx="762" cy="278" r="4"/>
    <circle cx="776" cy="298" r="5"/>
  </g>

  <path d="M0 330C70 312 128 346 202 330C267 316 334 348 403 334C477 319 548 346 620 332C681 320 731 332 800 323L800 400L0 400Z" fill="url(#sand)"/>
  <path d="M0 342C68 331 122 359 200 343C266 330 329 356 397 345C468 333 541 357 612 344C684 331 737 340 800 335L800 400L0 400Z" fill="url(#sandShade)" opacity=".95"/>

  <g opacity=".9">
    <path d="M38 334l16-38 11 13-7 25 17 1-8 18-9 10-18-3-7-15z" fill="url(#rock)"/>
    <path d="M67 331l14-18 16 12-6 20-13 10-13-4z" fill="#bfc7d2"/>

    <path d="M207 336l17-31 21 4 9 24-7 18-15 10-19-2z" fill="url(#rock)"/>
    <path d="M360 336l10-22 17-8 15 10 2 20-12 13-20 4z" fill="url(#rock)"/>
    <path d="M542 338l12-20 18-4 15 13-1 17-12 11-21 0z" fill="url(#rock)"/>
    <path d="M650 340l11-17 17-6 15 9 5 19-10 13-24 0z" fill="url(#rock)"/>
    <path d="M748 336l12-29 19 4 10 17-7 21-14 8-18-3z" fill="url(#rock)"/>
  </g>

  <g>
    <path d="M95 341c0-26 11-42 28-42s27 16 27 42" fill="none" stroke="url(#seaweed)" stroke-width="7" stroke-linecap="round"/>
    <path d="M120 339c2-18 7-34 19-49" fill="none" stroke="#6fdb47" stroke-width="4" stroke-linecap="round"/>
    <path d="M131 339c-1-14 2-30 12-44" fill="none" stroke="#54be33" stroke-width="4" stroke-linecap="round"/>
    <path d="M144 339c2-16 11-30 23-41" fill="none" stroke="#48ab2f" stroke-width="4" stroke-linecap="round"/>

    <path d="M276 339c0-30 10-49 23-49s22 19 22 49" fill="none" stroke="url(#seaweed)" stroke-width="7" stroke-linecap="round"/>
    <path d="M288 338c1-18 5-33 14-50" fill="none" stroke="#6fdb47" stroke-width="4" stroke-linecap="round"/>
    <path d="M304 338c0-16 4-33 12-44" fill="none" stroke="#48ab2f" stroke-width="4" stroke-linecap="round"/>

    <path d="M579 339c0-25 10-40 24-40s22 15 22 40" fill="none" stroke="url(#seaweed)" stroke-width="7" stroke-linecap="round"/>
    <path d="M593 338c1-13 4-23 11-37" fill="none" stroke="#6fdb47" stroke-width="4" stroke-linecap="round"/>
    <path d="M610 338c1-10 4-22 10-31" fill="none" stroke="#48ab2f" stroke-width="4" stroke-linecap="round"/>

    <path d="M712 339c0-28 11-44 26-44s25 16 25 44" fill="none" stroke="url(#seaweed)" stroke-width="7" stroke-linecap="round"/>
    <path d="M726 338c1-16 6-29 14-43" fill="none" stroke="#6fdb47" stroke-width="4" stroke-linecap="round"/>
  </g>

  <g>
    <path d="M214 332c10-10 22-11 32-1 5 5 8 11 8 17-14 8-30 8-43 0 0-6 1-11 3-16z" fill="url(#coralPink)"/>
    <path d="M229 331c-2-13 4-24 14-32 4 4 6 9 6 14-8 6-12 12-12 20z" fill="url(#coralPink)"/>
    <path d="M242 336c6-8 11-17 13-27 4 4 6 9 6 13-1 6-4 11-9 16z" fill="url(#coralSand)"/>

    <path d="M408 334c7-7 16-10 25-8 8 2 14 7 18 14-6 8-17 12-29 12s-21-3-27-10c3-4 7-6 13-8z" fill="url(#coralSand)"/>
    <path d="M418 336c-1-11 2-19 10-25 4 4 6 9 6 13-3 5-4 10-4 16z" fill="url(#coralPink)"/>

    <path d="M632 333c8-8 17-11 26-9 8 2 13 7 17 14-5 8-15 13-27 13-10 0-19-4-26-10 3-4 6-6 10-8z" fill="url(#coralPink)"/>
    <path d="M643 334c-1-12 3-22 11-28 5 5 7 10 7 15-2 6-4 11-5 18z" fill="url(#coralSand)"/>

    <path d="M733 335c8-5 16-6 24-3 6 2 11 7 14 13-4 7-11 11-21 11-8 0-15-3-20-8 1-5 1-9 3-13z" fill="url(#coralSand)"/>
    <path d="M742 337c1-9 5-16 11-22 4 4 6 8 6 12-2 5-4 9-4 14z" fill="url(#coralPink)"/>
  </g>

  <g transform="translate(56 312)">
    <ellipse cx="28" cy="16" rx="16" ry="8" fill="#c85a45"/>
    <circle cx="18" cy="12" r="4" fill="#d9735a"/>
    <circle cx="38" cy="12" r="4" fill="#d9735a"/>
    <path d="M12 15l-8-4M44 15l8-4M15 19l-6 5M41 19l6 5" stroke="#c85a45" stroke-width="3" stroke-linecap="round"/>
    <circle cx="20" cy="6" r="2" fill="#fff"/>
    <circle cx="36" cy="6" r="2" fill="#fff"/>
    <circle cx="20" cy="6" r="1" fill="#1a1210"/>
    <circle cx="36" cy="6" r="1" fill="#1a1210"/>
  </g>

  <g transform="translate(706 318)">
    <ellipse cx="20" cy="16" rx="14" ry="7" fill="#f0a04f"/>
    <circle cx="11" cy="12" r="4" fill="#ffbf68"/>
    <circle cx="29" cy="12" r="4" fill="#ffbf68"/>
    <path d="M7 15l-7-4M33 15l7-4M10 19l-5 5M30 19l5 5" stroke="#f0a04f" stroke-width="3" stroke-linecap="round"/>
    <circle cx="14" cy="7" r="2" fill="#fff"/>
    <circle cx="26" cy="7" r="2" fill="#fff"/>
    <circle cx="14" cy="7" r="1" fill="#1a1210"/>
    <circle cx="26" cy="7" r="1" fill="#1a1210"/>
  </g>

  <g opacity=".55" filter="url(#soft)">
    <circle cx="270" cy="236" r="11" fill="none" stroke="#f0fbff" stroke-width="2"/>
    <circle cx="740" cy="224" r="8" fill="none" stroke="#f0fbff" stroke-width="2"/>
    <circle cx="92" cy="198" r="6" fill="none" stroke="#f0fbff" stroke-width="2"/>
  </g>
</svg>
